<?xml version="1.0" encoding="UTF-8" standalone="no"?>
<svg
   width="1024"
   height="1024"
   viewBox="0 0 1024 1024"
   version="1.1"
   id="svg29"
   sodipodi:docname="logo.svg"
   inkscape:version="1.4.3 (1:1.4.3+202512261034+0d15f75042)"
   inkscape:export-filename="logo.png"
   inkscape:export-xdpi="24"
   inkscape:export-ydpi="24"
   xmlns:inkscape="http://www.inkscape.org/namespaces/inkscape"
   xmlns:sodipodi="http://sodipodi.sourceforge.net/DTD/sodipodi-0.dtd"
   xmlns="http://www.w3.org/2000/svg"
   xmlns:svg="http://www.w3.org/2000/svg">
  <defs
     id="defs29" />
  <sodipodi:namedview
     id="namedview29"
     pagecolor="#ffffff"
     bordercolor="#666666"
     borderopacity="1.0"
     inkscape:showpageshadow="2"
     inkscape:pageopacity="0.0"
     inkscape:pagecheckerboard="0"
     inkscape:deskcolor="#d1d1d1"
     inkscape:zoom="0.55726091"
     inkscape:cx="112.15572"
     inkscape:cy="332.87818"
     inkscape:window-width="1860"
     inkscape:window-height="1016"
     inkscape:window-x="60"
     inkscape:window-y="27"
     inkscape:window-maximized="1"
     inkscape:current-layer="svg29" />
  <path
     id="path21"
     style="display:inline;fill:#ffffff;fill-opacity:1"
     d="m 209.97363,56.250977 c -16.377,2.4804 -17.59777,12.511771 -17.59277,25.826171 l 0.0215,15.590821 c -11.186,3.959801 -22.21593,8.017951 -32.12793,14.751951 l -9.38769,-9.10351 c -11.763,-11.340528 -23.84681,-17.322057 -37.04981,-3.689457 l -12.22265,12.783207 c -22.779314,23.811 -12.07773,30.52654 8.13867,50.18554 -5.594,9.858 -12.827308,24.30457 -14.145508,35.68457 l -14.310547,-0.0225 c -8.6024,-0.01 -16.35263,-0.73945 -23.00293,5.85157 -7.7529,7.56799 -5.587704,23.05969 -5.549804,33.51269 0.1122,30.982 20.908451,24.81919 43.797851,25.11719 1.8003,9.244 8.167938,26.18015 13.210938,34.03515 l -9.881836,9.78516 c -12.343,12.223 -15.967649,22.87703 -2.514649,36.08203 l 10.531255,10.53613 c 6.404,6.532 11.6631,13.98692 21.8291,13.83692 13.788,-0.205 20.38917,-12.20851 29.45117,-20.77051 10.121,6.67 21.44837,12.1392 33.23437,15.1582 -0.697,4.392 0.75396,11.77682 -0.04,15.75782 -4.027,20.2 13.61811,23.91598 28.45411,23.83398 v 16.30371 h -23.58008 c -7.103,-21.627 -37.60908,-17.6448 -38.83008,4.4502 -0.989,17.88 26.58708,30.36804 38.83008,6.54004 l 15.23437,0.0264 c 2.415,0.013 6.07771,0.23364 8.34571,-0.0264 -0.015,4.485 -1.0464,19.87716 2.0166,22.86816 2.86,2.794 8.78315,1.74814 12.41015,1.74414 l 39.38965,-0.003 c 14.547,0.027 19.25075,3.7093 19.21875,-12.3457 l -0.0215,-12.26367 c 8.365,-0.089 24.61213,1.19137 32.03613,-0.0156 4.555,-0.724 6.21661,-6.74953 2.59961,-9.64453 -2.958,-2.368 -25.02005,-1.34008 -29.37305,-1.33008 h -5.26269 l 0.0205,-17.27148 c 0.011,-3.758 0.80439,-9.46254 -1.72461,-12.22754 -3.177,-3.473 -8.45237,-1.83248 -9.02637,2.81152 -0.371,3.189 -0.24123,6.39945 -0.24023,9.60645 l 0.0244,17.08105 -21.29688,-0.0127 c -3.647,-0.008 -7.5565,-0.21731 -11.1455,0.0127 -1.517,0.883 -2.97494,1.80777 -3.33594,3.63477 -1.825,9.231 11.0283,7.36121 16.5293,7.36621 l 19.24902,-0.0107 c 0.008,2.227 0.206,12.27535 0,13.73535 -16.924,0.002 -34.17822,0.187 -51.07422,0 -0.006,-13.416 -0.263,-27.6853 0,-41.0293 22.062,0.121 30.47596,-3.60368 30.45996,-27.09668 l -0.0215,-12.49512 c 8.535,-2.362 14.62143,-4.80975 22.81543,-8.21875 9.052,63.501 106.15129,62.77232 111.19629,-2.92968 0.368,-4.799 0.13193,-9.99013 0.12793,-14.82813 l -0.0137,-22.21777 c -0.001,-6.929 -0.28518,-13.22244 1.96582,-19.89844 5.995,-17.546 15.98844,-20.36312 27.02344,-32.07812 47.076,-49.976 45.07792,-128.46516 -6.91308,-174.126958 -41.339,-36.3061 -99.14722,-40.451408 -144.74122,-10.020508 -3.908,2.6083 -7.54993,5.923075 -11.46093,8.484375 2.088,-29.0285 -10.46275,-29.91547 -35.63575,-29.30957 -4.524,0.1089 -12.50167,-0.369912 -16.63867,-0.0078 z"
     transform="matrix(2.3593904,0,0,2.3593904,-91.496796,-88.928473)"
     inkscape:label="clonado"
     sodipodi:nodetypes="cccccccccccccccccccccccccccccccccccccccccccccccccccccccccccscscc" />
  <g
     id="g29"
     transform="matrix(1.1796952,0,0,1.1796952,-91.496796,-88.928473)"
     style="display:inline">
    <path
       id="path1"
       style="display:inline;fill:#073e6d;fill-opacity:1"
       d="m 209.97363,56.250977 c -16.377,2.4804 -17.59777,12.511771 -17.59277,25.826171 l 0.0215,15.590821 c -11.186,3.959801 -22.21593,8.017951 -32.12793,14.751951 l -9.38769,-9.10351 c -11.763,-11.340528 -23.84681,-17.322057 -37.04981,-3.689457 l -12.22265,12.783207 c -22.779314,23.811 -12.07773,30.52654 8.13867,50.18554 -5.594,9.858 -12.827308,24.30457 -14.145508,35.68457 l -14.310547,-0.0225 c -8.6024,-0.01 -16.35263,-0.73945 -23.00293,5.85157 -7.7529,7.56799 -5.587704,23.05969 -5.549804,33.51269 0.1122,30.982 20.908451,24.81919 43.797851,25.11719 1.8003,9.244 8.167938,26.18015 13.210938,34.03515 l -9.881836,9.78516 c -12.343,12.223 -15.967649,22.87703 -2.514649,36.08203 l 10.531255,10.53613 c 6.404,6.532 11.6631,13.98692 21.8291,13.83692 13.788,-0.205 20.38917,-12.20851 29.45117,-20.77051 10.121,6.67 21.44837,12.1392 33.23437,15.1582 -0.697,4.392 0.75396,11.77682 -0.04,15.75782 -4.027,20.2 13.61811,23.91598 28.45411,23.83398 v 16.30371 h -23.58008 c -7.103,-21.627 -37.60908,-17.6448 -38.83008,4.4502 -0.989,17.88 26.58708,30.36804 38.83008,6.54004 l 15.23437,0.0264 c 2.415,0.013 6.07771,0.23364 8.34571,-0.0264 -0.015,4.485 -1.0464,19.87716 2.0166,22.86816 2.86,2.794 8.78315,1.74814 12.41015,1.74414 l 39.38965,-0.003 c 14.547,0.027 19.25075,3.7093 19.21875,-12.3457 l -0.0215,-12.26367 c 8.365,-0.089 24.61213,1.19137 32.03613,-0.0156 4.555,-0.724 6.21661,-6.74953 2.59961,-9.64453 -2.958,-2.368 -25.02005,-1.34008 -29.37305,-1.33008 h -5.26269 l 0.0205,-17.27148 c 0.011,-3.758 0.80439,-9.46254 -1.72461,-12.22754 -3.177,-3.473 -8.45237,-1.83248 -9.02637,2.81152 -0.371,3.189 -0.24123,6.39945 -0.24023,9.60645 l 0.0244,17.08105 -21.29688,-0.0127 c -3.647,-0.008 -7.5565,-0.21731 -11.1455,0.0127 -1.517,0.883 -2.97494,1.80777 -3.33594,3.63477 -1.825,9.231 11.0283,7.36121 16.5293,7.36621 l 19.24902,-0.0107 c 0.008,2.227 0.206,12.27535 0,13.73535 -16.924,0.002 -34.17822,0.187 -51.07422,0 -0.006,-13.416 -0.263,-27.6853 0,-41.0293 22.062,0.121 30.47596,-3.60368 30.45996,-27.09668 l -0.0215,-12.49512 c 8.535,-2.362 14.62143,-4.80975 22.81543,-8.21875 9.052,63.501 106.15129,62.77232 111.19629,-2.92968 0.368,-4.799 0.13193,-9.99013 0.12793,-14.82813 l -0.0137,-22.21777 c -0.001,-6.929 -0.28518,-13.22244 1.96582,-19.89844 5.995,-17.546 15.98844,-20.36312 27.02344,-32.07812 47.076,-49.976 45.07792,-128.46516 -6.91308,-174.126958 -41.339,-36.3061 -99.14722,-40.451408 -144.74122,-10.020508 -3.908,2.6083 -7.54993,5.923075 -11.46093,8.484375 2.088,-29.0285 -10.46275,-29.91547 -35.63575,-29.30957 -4.524,0.1089 -12.50167,-0.369912 -16.63867,-0.0078 z M 238.6582,66.62793 c 6.17007,0.27917 12.05252,1.744997 12.78321,6.966797 0.43,3.0778 0.14239,6.338314 0.10839,9.461914 l -0.0195,13.416015 -0.25293,0.382813 c -8.144,12.166801 -15.87114,19.069671 -21.82714,34.388671 -2.666,-0.536 -6.95172,-0.17633 -9.63672,0.13867 -42.781,5.029 -78.2855,37.64479 -86.6045,79.75879 -15.371,77.813 61.95777,141.53631 135.13477,110.82031 5.822,-2.482 10.42531,-5.11386 15.94531,-8.13086 l 0.0342,15.76856 c 0.038,3.284 0.23182,7.95041 -0.0342,11.14941 -6.343,3.628 -13.23376,6.52671 -20.25976,8.55371 -9.441,2.724 -12.9034,0.28195 -12.6084,11.16895 0.851,31.465 2.28801,29.6235 -27.16699,29.5625 h -14.28028 c -0.64078,-0.17128 -1.22777,-0.38844 -1.76367,-0.64551 -2.6e-4,-1.2e-4 -7.1e-4,1.3e-4 -9.8e-4,0 -0.53611,-0.25724 -1.02101,-0.55469 -1.458,-0.88867 -0.43699,-0.33398 -0.82619,-0.70387 -1.16993,-1.10547 -1.6e-4,-2e-4 1.7e-4,-7.8e-4 0,-9.8e-4 -0.34359,-0.40141 -0.64215,-0.83409 -0.89843,-1.29394 -1.4e-4,-2.5e-4 1.4e-4,-7.2e-4 0,-9.8e-4 -0.12798,-0.22968 -0.24525,-0.46643 -0.35254,-0.70898 -1.7e-4,-3.8e-4 -8.1e-4,-5.9e-4 -9.8e-4,-9.8e-4 -0.32218,-0.72865 -0.55243,-1.51263 -0.70117,-2.33691 -6e-5,-3.1e-4 6e-5,-6.7e-4 0,-9.8e-4 -0.0991,-0.54944 -0.16205,-1.11673 -0.19141,-1.69726 -1e-5,-3.2e-4 2e-5,-6.6e-4 0,-9.8e-4 -0.0293,-0.58056 -0.0248,-1.17383 0.01,-1.77637 v -9.7e-4 c -0.222,-0.956 -0.145,-23.9604 0,-25.5254 -1.663,-2.253 -4.78281,-2.41539 -7.38281,-3.10839 -10.235,-2.726 -19.4757,-7.05189 -28.6377,-12.33789 -2.142,-1.227 -8.48704,-6.91522 -11.04004,-4.69922 -4.693,4.073 -10.48894,10.29524 -14.96094,14.57324 -3.228,3.347 -10.73911,11.27834 -16.24511,6.27734 -6.758,-6.138 -12.92646,-13.15493 -19.56446,-19.46093 -9.070225,-8.61795 -6.306388,-12.67592 1.9795,-20.34083 2.467,-2.90399 6.76244,-7.23821 9.35644,-9.74121 8.812,-8.501 5.95017,-7.19261 0.95117,-16.30761 -3.842,-7.008 -7.15858,-16.2866 -9.72558,-24.0166 -5.585,-16.821 0.14069,-13.24572 -23.428713,-13.13672 H 69.348633 c -5.7309,-3.074 -5.564963,-5.86857 -5.476563,-11.85157 0.134,-9.07 -3.784634,-29.10823 7.447266,-30.61523 3.691675,-0.19714 8.932165,-0.058 13.428711,0 1.137298,0.0147 2.425454,-0.002 3.396484,0 14.241499,-0.346 15.081819,3.47662 18.340819,-10.56738 2.166,-9.334 5.85929,-18.47715 10.32129,-26.95215 1.814,-3.447 4.69916,-7.40188 5.91016,-10.87988 -4.14456,-13.93462 -35.449197,-17.63317 -15.91114,-37.83594 6.855,-7.1 17.246,-22.35044 27.417,-19.27344 3.39591,1.52001 5.14994,4.11989 8.0039,6.50586 2.66,2.723 12.48182,12.69097 14.96582,14.04297 3.772,2.053 7.26935,-1.61267 10.15235,-3.55567 7.01,-4.722 15.87144,-8.52422 23.85644,-11.03222 3.782,-1.188 10.14112,-1.3641 12.24512,-5.2041 -0.333,-1.84 -0.0703,-29.369655 0.47266,-31.297855 -0.0198,-0.849692 0.1885,-1.646672 0.56152,-2.370117 0.0931,-0.180574 0.19701,-0.356289 0.30957,-0.527344 v -9.76e-4 c 0.11274,-0.171278 0.23495,-0.336981 0.36523,-0.498047 0.78175,-0.966318 1.86127,-1.742905 3.02344,-2.257813 0.77477,-0.343314 1.58587,-0.570706 2.37012,-0.660156 h 15.47949 c 1.633,-0.005 3.95677,-0.170036 6.54395,-0.270508 1.94037,-0.07535 4.02924,-0.114541 6.08593,-0.02148 z m 12.542,208.58398 c 26.83417,1.70919 25.93824,30.04852 5.35449,34.65821 -35.5,2.395 -30.03075,-31.25589 -11.09375,-34.62989 2.03781,-0.13768 3.95031,-0.14226 5.73926,-0.0283 z m -46.97657,78.75 c -0.28775,0.008 -0.51421,0.0248 -0.65722,0.0537 0.1432,-0.0289 0.36893,-0.0456 0.65722,-0.0537 z"
       transform="scale(2)" />
    <path
       fill="#fedc5a"
       transform="scale(2)"
       d="m 333.208,68.0052 c 38.35,-0.4446 70.787,13.582 94.054,45.5228 33.354,45.787 25.42,108.865 -16.299,145.995 -13.328,11.862 -22.284,19.977 -25.453,39.507 -13.026,-0.148 -26.349,0 -39.401,0 h -51.105 l -0.034,-0.47 C 293.67,280.967 281.548,269.209 268.884,258.571 195.945,197.302 236.135,74.7771 333.208,68.0052 Z"
       id="path2" />
    <path
       fill="#073e6d"
       transform="scale(2)"
       d="m 338.98,113.745 c 34.129,-4.488 59.198,43.175 32.669,71.52 -2.509,2.681 -5.67,4.893 -8.466,7.309 v 14.172 c 13.237,0.057 13.819,10.507 13.201,20.755 -0.922,15.269 3.151,16.414 -14.424,16.245 0.095,18.847 4.367,23.099 -15.851,23.079 -0.058,5.941 2.078,15.727 -3.793,18.414 -9.613,2.248 -7.074,-12.188 -7.075,-18.414 -10.847,-0.202 -17.054,2.843 -16.031,-11.663 0.223,-3.158 0.03,-8.09 0.042,-11.416 -14.943,-0.17 -15.226,3.341 -15.09,-13.377 0.085,-10.439 -1.948,-22.97 13.012,-23.623 V 191.45 c -35.063,-20.529 -19.732,-76.738 21.806,-77.705 z"
       id="path3" />
    <path
       fill="#2feabc"
       transform="scale(2)"
       d="m 335.241,125.132 c 35.115,-4.47 50.12,40.172 20.733,58.404 -5.744,3.564 -3.733,16.973 -3.71,23.21 h -16.53 v -47.339 c 3.143,-0.012 7.2,0.202 9.904,-0.123 4.397,-0.528 6.577,-6.446 3.518,-9.564 -2.429,-2.476 -11.116,-1.716 -13.915,-1.69 0.377,-6.616 0.001,-15.961 0,-22.898 z"
       id="path4" />
    <path
       fill="#1cc985"
       transform="scale(2)"
       d="m 324.702,183.185 c -25.37,-13.818 -18.964,-51.378 10.539,-58.053 0.001,6.937 0.377,16.282 0,22.898 -12.93,0.594 -10.59,6.286 -10.564,16.277 z"
       id="path5" />
    <path
       fill="#1cc985"
       transform="scale(2)"
       d="m 318.448,217.801 31.514,-0.002 c 4.917,-0.003 10.864,-0.203 15.652,0.002 0.263,4.083 0.02,10.87 0,15.208 h -2.431 -47.833 c -0.019,-5.014 -0.118,-10.212 0,-15.208 z"
       id="path6" />
    <path
       fill="#fedc5a"
       transform="scale(2)"
       d="m 330.215,243.746 h 20.914 c 0.016,4.132 0.048,8.273 0,12.403 -6.946,0.013 -13.976,0.079 -20.914,0 z"
       id="path7" />
    <path
       fill="#073e6d"
       transform="scale(2)"
       d="m 273.496,148.53 c 6.094,-0.032 14.882,-2.095 16.786,5.516 -0.78,3.308 -1.909,4.596 -5.219,5.361 -3.645,0.033 -13.045,0.738 -15.326,-1.292 -3.863,-3.437 -1.635,-8.948 3.759,-9.585 z"
       id="path8" />
    <path
       fill="#073e6d"
       transform="scale(2)"
       d="m 291.966,104.532 c 4.862,-0.435 21.377,15.103 8.322,18.322 -4.498,0.371 -22.187,-15.748 -8.322,-18.322 z"
       id="path9" />
    <path
       fill="#073e6d"
       transform="scale(2)"
       d="m 387.57,104.532 c 13.581,-0.795 2.423,15.498 -5.7,18.322 -13.239,0.067 -2.283,-15.245 5.7,-18.322 z"
       id="path10" />
    <path
       fill="#073e6d"
       transform="scale(2)"
       d="m 339.672,85.5686 c 7.96,0.5784 10.044,17.9404 0.964,21.0134 -9.274,-0.346 -8.949,-19.6851 -0.964,-21.0134 z"
       id="path11" />
    <path
       fill="#073e6d"
       transform="scale(2)"
       d="m 397.153,148.03 c 17.073,-1.69 16.215,8.739 7.303,11.377 -1.109,-0.124 -3.598,-0.432 -4.883,-0.37 -11.322,0.545 -11.694,-10.577 -2.42,-11.007 z"
       id="path12" />
    <path
       fill="#42b2fa"
       transform="scale(2)"
       d="m 147.388,199.726 h 75.034 c 1.636,14.931 10.839,33.174 19.015,45.264 -6.782,8.678 -13.43,6.641 -23.051,7.667 -26.14,2.785 -27.453,43.6 -16.797,43.441 11.44,-0.172 0.572,-20.207 9.608,-27.94 12.565,-10.754 20.238,2.725 37.176,-14.205 2.8,2.907 5.925,6.272 9.045,8.786 12.74,13.19 23.528,16.43 26.871,37.19 -61.031,49.062 -152.561,-2.828 -141.239,-82.531 0.862,-6.07 2.736,-11.796 4.338,-17.672 z M 256.555,309.87 c 21.956,-4.917 21.511,-36.833 -11.094,-34.63 -18.937,3.374 -24.406,37.025 11.094,34.63 z"
       id="path13" />
    <path
       fill="#073e6d"
       transform="scale(2)"
       d="m 184.23,211.944 c 10.565,-0.893 19.863,6.924 20.797,17.485 0.934,10.561 -6.847,19.889 -17.404,20.865 -10.616,0.981 -20.007,-6.852 -20.947,-17.472 -0.939,-10.619 6.931,-19.98 17.554,-20.878 z"
       id="path14" />
    <path
       fill="#e7ebea"
       transform="scale(2)"
       d="m 184.37,223.062 c 4.451,-0.785 8.702,2.163 9.527,6.606 0.825,4.444 -2.086,8.721 -6.521,9.586 -4.492,0.875 -8.836,-2.081 -9.671,-6.58 -0.835,-4.5 2.158,-8.817 6.665,-9.612 z"
       id="path15" />
    <path
       fill="#073e6d"
       transform="scale(2)"
       d="m 245.461,275.24 c 32.605,-2.203 33.05,29.713 11.094,34.63 -35.5,2.395 -30.031,-31.256 -11.094,-34.63 z m 9.629,23.79 c 3.409,-1.717 6.558,-5.055 4.443,-9.191 -2.095,-4.097 -8.371,-3.357 -12.371,-3.246 -7.844,0.941 -7.946,12.722 2.819,12.228 1.314,-0.06 3.88,0.151 5.109,0.209 z"
       id="path16" />
    <path
       fill="#1cc985"
       transform="scale(2)"
       d="m 295.004,309.87 c 20.174,-0.524 42.375,-0.586 62.419,0 h 28.087 v 22.858 l -15.716,-0.024 c -3.691,-0.002 -9.251,-0.524 -12.371,1.399 -6.81,10.272 6.346,9.665 11.714,9.659 l 16.373,-0.025 c 1.137,21.253 -12.201,37.709 -31.891,44.302 -29.06,9.022 -58.244,-13.948 -58.615,-44.302 l 19.872,-0.007 c 3.845,-0.016 7.711,-0.165 11.544,0.007 3.895,0.024 13.364,0.702 16.107,-1.265 3.953,-2.835 1.833,-9.129 -3.547,-9.744 -3.976,0.208 -9.647,-0.049 -13.797,-0.047 l -30.179,0.047 c -0.128,-7.488 -0.003,-15.34 0,-22.858 z"
       id="path17" />
    <path
       fill="#069869"
       transform="scale(2)"
       d="m 295.004,343.737 19.872,-0.007 c 3.845,-0.016 7.711,-0.165 11.544,0.007 -0.886,19.499 6.056,31.466 22.233,41.114 1.187,0.708 4.052,2.355 4.966,3.188 -29.06,9.022 -58.244,-13.948 -58.615,-44.302 z"
       id="path18" />
    <path
       fill="#069869"
       transform="scale(2)"
       d="m 295.004,309.87 c 20.174,-0.524 42.375,-0.586 62.419,0 -3.102,0.212 -7.565,0.019 -10.814,0.01 l -20.189,-0.01 c -0.009,7.575 -0.096,15.296 0,22.858 1.947,-0.002 11.471,-0.25 12.56,0 -3.976,0.208 -9.647,-0.049 -13.797,-0.047 l -30.179,0.047 c -0.128,-7.488 -0.003,-15.34 0,-22.858 z"
       id="path19" />
    <path
       fill="#098eb7"
       transform="scale(2)"
       d="m 224.254,142.578 0.268,-0.067 0.275,0.183 c 0.152,1.224 -3.176,14.993 -3.58,18.923 -0.71,6.892 -1.02,20.173 -0.401,27.132 h -67.629 l -0.485,-0.127 c 0.091,-1.232 2.123,-3.895 2.85,-4.989 13.779,-20.723 42.441,-42.71 68.702,-41.055 z"
       id="path20" />
    <path
       fill="#2feabc"
       transform="scale(2)"
       d="m 176.208,413.764 c 4.6,-1.111 9.228,1.728 10.322,6.333 1.094,4.604 -1.762,9.221 -6.37,10.299 -4.585,1.071 -9.173,-1.766 -10.262,-6.347 -1.088,-4.581 1.733,-9.18 6.31,-10.285 z"
       id="path29" />
  </g>
</svg>
